<svg width="18" height="18" viewBox="0 0 18 18" fill="none" xmlns="http://www.w3.org/2000/svg">
<path fill-rule="evenodd" clip-rule="evenodd" d="M4.25623 3.85817C5.60896 3.72158 6.96201 3.65326 8.31525 3.65326C10.5758 3.65326 12.842 3.76831 15.0939 3.99147C15.6435 4.04593 16.0448 4.53562 15.9904 5.08521C15.9359 5.6348 15.4462 6.03618 14.8966 5.98172C12.7085 5.76487 10.5081 5.65326 8.31525 5.65326C7.02898 5.65326 5.74253 5.71822 4.45575 5.8482L4.45282 5.84849L3.09282 5.98182C2.54317 6.03571 2.05391 5.63381 2.00002 5.08416C1.94614 4.53451 2.34803 4.04525 2.89768 3.99136L4.25623 3.85817Z" fill="black"/>
<path fill-rule="evenodd" clip-rule="evenodd" d="M7.66802 3.27263L7.52143 4.1455C7.42996 4.69016 6.91428 5.05754 6.36962 4.96607C5.82496 4.8746 5.45758 4.35892 5.54905 3.81426L5.69572 2.94092C5.69854 2.92418 5.70159 2.90517 5.70483 2.885C5.7473 2.62019 5.83469 2.07542 6.20605 1.6543C6.66397 1.13503 7.3267 0.999878 7.99524 0.999878H10.1819C10.8655 0.999878 11.5256 1.14874 11.9789 1.67114C12.3484 2.09703 12.4333 2.63973 12.4742 2.90155C12.4769 2.91878 12.4794 2.93479 12.4818 2.94947L12.6279 3.81302C12.7201 4.35756 12.3533 4.87371 11.8088 4.96586C11.2642 5.05801 10.7481 4.69128 10.6559 4.14674L10.5083 3.27413C10.4883 3.15154 10.4749 3.07529 10.4619 3.01942C10.4056 3.00951 10.3159 2.99988 10.1819 2.99988H7.99524C7.86331 2.99988 7.77326 3.00857 7.71491 3.01794C7.70214 3.07449 7.68836 3.15187 7.66802 3.27263Z" fill="black"/>
<path fill-rule="evenodd" clip-rule="evenodd" d="M4.43564 7.00177C4.98695 6.96885 5.46055 7.38908 5.49348 7.94038L5.85982 14.0752C5.87902 14.3489 5.89336 14.5273 5.92306 14.6747C5.95087 14.8128 5.97944 14.8505 5.98164 14.8534C5.98164 14.8534 5.98504 14.8579 5.99484 14.8647C6.0065 14.8727 6.03611 14.8907 6.09563 14.9113C6.22213 14.9549 6.45404 15 6.85524 15H11.1352C11.5364 15 11.7683 14.9549 11.8948 14.9113C11.9544 14.8907 11.984 14.8727 11.9956 14.8647C12.006 14.8575 12.0088 14.8534 12.0088 14.8534C12.011 14.8505 12.0396 14.8128 12.0674 14.6747C12.0971 14.5273 12.1115 14.3489 12.1307 14.0752L12.497 7.94038C12.53 7.38908 13.0036 6.96885 13.5549 7.00177C14.1062 7.03469 14.5264 7.5083 14.4935 8.05961L14.1262 14.2099L14.1244 14.234C14.1075 14.4769 14.0862 14.7808 14.0281 15.0696C13.9659 15.3784 13.8494 15.7403 13.595 16.0716C13.0501 16.7811 12.166 17 11.1352 17H6.85524C5.82449 17 4.9404 16.7811 4.39551 16.0716C4.14104 15.7403 4.02461 15.3784 3.96242 15.0696C3.90425 14.7808 3.88301 14.4769 3.86604 14.234C3.86547 14.2259 3.86491 14.2179 3.86435 14.2099L3.86363 14.1996L3.49703 8.0596C3.46411 7.5083 3.88434 7.03469 4.43564 7.00177Z" fill="black"/>
</svg>
