<svg xmlns="http://www.w3.org/2000/svg" width="18" height="18" viewBox="0 0 18 18" fill="none">
  <path fill-rule="evenodd" clip-rule="evenodd" d="M2 11C2 8.79086 3.79086 7 6 7H12C14.2091 7 16 8.79086 16 11V13C16 15.2091 14.2091 17 12 17H6C3.79086 17 2 15.2091 2 13V11ZM6 9C4.89543 9 4 9.89543 4 11V13C4 14.1046 4.89543 15 6 15H12C13.1046 15 14 14.1046 14 13V11C14 9.89543 13.1046 9 12 9H6Z" fill="black"/>
  <path fill-rule="evenodd" clip-rule="evenodd" d="M4 5C4 2.79086 5.79086 1 8 1H10C12.2091 1 14 2.79086 14 5V9H4V5ZM8 3C6.89543 3 6 3.89543 6 5V7H12V5C12 3.89543 11.1046 3 10 3H8Z" fill="black"/>
  <path d="M8 11C8 10.4477 8.44772 10 9 10C9.55228 10 10 10.4477 10 11V12C10 12.5523 9.55228 13 9 13C8.44772 13 8 12.5523 8 12V11Z" fill="black"/>
</svg>